<?xml version="1.0" encoding="UTF-8" standalone="no"?>
<svg
   xmlns:dc="http://purl.org/dc/elements/1.1/"
   xmlns:cc="http://creativecommons.org/ns#"
   xmlns:rdf="http://www.w3.org/1999/02/22-rdf-syntax-ns#"
   xmlns:svg="http://www.w3.org/2000/svg"
   xmlns="http://www.w3.org/2000/svg"
   xmlns:sodipodi="http://sodipodi.sourceforge.net/DTD/sodipodi-0.dtd"
   xmlns:inkscape="http://www.inkscape.org/namespaces/inkscape"
   viewBox="0 0 56 70"
   version="1.1"
   x="0px"
   y="0px"
   id="svg34"
   sodipodi:docname="xray-logo.svg"
   inkscape:version="0.92.2 5c3e80d, 2017-08-06">
  <metadata
     id="metadata40">
    <rdf:RDF>
      <cc:Work
         rdf:about="">
        <dc:format>image/svg+xml</dc:format>
        <dc:type
           rdf:resource="http://purl.org/dc/dcmitype/StillImage" />
        <dc:title>030 - X Ray</dc:title>
      </cc:Work>
    </rdf:RDF>
  </metadata>
  <defs
     id="defs38" />
  <sodipodi:namedview
     pagecolor="#ffffff"
     bordercolor="#666666"
     borderopacity="1"
     objecttolerance="10"
     gridtolerance="10"
     guidetolerance="10"
     inkscape:pageopacity="0"
     inkscape:pageshadow="2"
     inkscape:window-width="1440"
     inkscape:window-height="806"
     id="namedview36"
     showgrid="false"
     inkscape:zoom="3.3714286"
     inkscape:cx="28"
     inkscape:cy="35"
     inkscape:window-x="0"
     inkscape:window-y="1"
     inkscape:window-maximized="1"
     inkscape:current-layer="svg34" />
  <title
     id="title2">030 - X Ray</title>
  <desc
     id="desc4">Created with Sketch.</desc>
  <g
     stroke="none"
     stroke-width="1"
     fill="none"
     fill-rule="evenodd"
     id="g28">
    <g
       fill="#000000"
       fill-rule="nonzero"
       id="g26">
      <path
         d="M29,42.6 C29.141408,42.5311872 29.2870329,42.4714008 29.436,42.421 C29.8413426,42.2827834 30.2667405,42.2125032 30.695,42.213 C31.7789221,42.2160613 32.8177069,42.6473907 33.585,43.413 C33.9592484,43.7899314 34.4688339,44.0013284 35,44 L37,44 C38.6568542,44 40,42.6568542 40,41 L40,40 C40,38.3431458 38.6568542,37 37,37 L35,37 C34.4695918,36.9980338 33.9604361,37.2083216 33.586,37.584 C32.5016854,38.6730323 30.8958152,39.0572803 29.436,38.577 C29.2870807,38.5272502 29.1414567,38.4681322 29,38.4 L29,42.6 Z M35.293,40.291 L36.293,39.291 C36.6853789,38.9120278 37.3090848,38.9174476 37.6948186,39.3031814 C38.0805524,39.6889152 38.0859722,40.3126211 37.707,40.705 L36.707,41.705 C36.3146211,42.0839722 35.6909152,42.0785524 35.3051814,41.6928186 C34.9194476,41.3070848 34.9140278,40.6833789 35.293,40.291 Z"
         id="path6" />
      <path
         d="M37.361,23.122 C34.6078393,23.6756216 31.8081825,23.9655992 29,23.988 L29,26.964 C31.3691617,26.9418091 33.7308249,26.6940236 36.053,26.224 C39.199,25.524 39.967,24.684 40,24.496 C39.971,24.368 39.417,23.74 37.361,23.122 Z"
         id="path8" />
      <path
         d="M22.415,37.585 C22.0404214,37.2088023 21.530877,36.9981426 21,37 L19,37 C17.3431458,37 16,38.3431458 16,40 L16,41 C16,42.6568542 17.3431458,44 19,44 L21,44 C21.5304082,44.0019662 22.0395639,43.7916784 22.414,43.416 C23.4977203,42.3259088 25.1042354,41.9415065 26.564,42.423 C26.7129193,42.4727498 26.8585433,42.5318678 27,42.6 L27,38.4 C26.858592,38.4688128 26.7129671,38.5285992 26.564,38.579 C25.1042953,39.0586141 23.4989026,38.6740009 22.415,37.585 Z M20.707,41.707 C20.3165001,42.0973819 19.6834999,42.0973819 19.293,41.707 L18.293,40.707 C17.9140278,40.3146211 17.9194476,39.6909152 18.3051814,39.3051814 C18.6909152,38.9194476 19.3146211,38.9140278 19.707,39.293 L20.707,40.293 C21.0973819,40.6834999 21.0973819,41.3165001 20.707,41.707 Z"
         id="path10" />
      <path
         d="M36.172,28.235 C33.8090446,28.7010718 31.4083234,28.9494453 29,28.977 L29,31.983 C34.938,31.817 38,30.209 38,29.5 C38,29.31 37.537,28.766 36.172,28.235 Z"
         id="path12" />
      <path
         d="M29,17.988 L29,21.988 C31.7512407,21.9690548 34.4937626,21.6762779 37.187,21.114 C40.097,20.454 40.938,19.693 41.002,19.478 C40.928,19.286 39.779,18.263 35.526,17.569 C32.873,17.867 30.351,17.96 29,17.988 Z"
         id="path14" />
      <path
         d="M15,19.524 C15.065,19.694 15.906,20.455 18.814,21.114 C21.5068319,21.6768298 24.2490441,21.9699444 27,21.989 L27,17.989 C25.649,17.961 23.127,17.868 20.474,17.571 C16.221,18.264 15.072,19.287 15,19.524 Z"
         id="path16" />
      <path
         d="M18,29.5 C18,30.209 21.062,31.817 27,31.983 L27,28.977 C24.5916766,28.9494453 22.1909554,28.7010718 19.828,28.235 C18.463,28.766 18,29.31 18,29.5 Z"
         id="path18" />
      <path
         d="M51,0 L5,0 C2.23994685,0.00330611633 0.00330611633,2.23994685 0,5 L0,51 C0.00330611633,53.7600532 2.23994685,55.9966939 5,56 L51,56 C53.7600532,55.9966939 55.9966939,53.7600532 56,51 L56,5 C55.9966939,2.23994685 53.7600532,0.00330611633 51,0 Z M54,51 C54,52.6568542 52.6568542,54 51,54 L5,54 C3.34314575,54 2,52.6568542 2,51 L2,5 C2,3.34314575 3.34314575,2 5,2 L51,2 C52.6568542,2 54,3.34314575 54,5 L54,51 Z"
         id="path20" />
      <path
         d="M51,4 L5,4 C4.44771525,4 4,4.44771525 4,5 L4,51 C4,51.5522847 4.44771525,52 5,52 L51,52 C51.5522847,52 52,51.5522847 52,51 L52,5 C52,4.44771525 51.5522847,4 51,4 Z M40.325,16.752 C42.1,17.477 43,18.394 43,19.5 C43,20.606 42.123,21.5 40.377,22.223 C41.2924442,22.6296175 41.914254,23.5019902 42,24.5 C42,25.718 40.962,26.715 38.91,27.481 C39.5666972,27.9486178 39.9693284,28.694409 40,29.5 C40,32.414 34.474,33.831 29,33.985 L29,35 C28.9998972,35.1283779 29.0079132,35.2566339 29.024,35.384 C29.085315,35.9897729 29.5013093,36.500919 30.082,36.684 C30.8195171,36.9211538 31.6277269,36.7222932 32.171,36.17 C32.9196597,35.4174732 33.9385045,34.9961058 35,35 L37,35 C39.7600532,35.0033061 41.9966939,37.2399468 42,40 L42,41 C41.9966939,43.7600532 39.7600532,45.9966939 37,46 L35,46 C33.9378909,46.0035211 32.9186367,45.581413 32.17,44.828 C31.627186,44.2756021 30.8189971,44.0770385 30.082,44.315 C29.5012375,44.4977285 29.0853944,45.0091723 29.025,45.615 C29.0084147,45.742664 29.0000641,45.8712632 29,46 L29,47 C29,47.5522847 28.5522847,48 28,48 C27.4477153,48 27,47.5522847 27,47 L27,46 C27.0001028,45.8716221 26.9920868,45.7433661 26.976,45.616 C26.914685,45.0102271 26.4986907,44.499081 25.918,44.316 C25.1805085,44.0781189 24.371913,44.2770745 23.829,44.83 C23.0803403,45.5825268 22.0614955,46.0038942 21,46 L19,46 C16.2399468,45.9966939 14.0033061,43.7600532 14,41 L14,40 C14.0033061,37.2399468 16.2399468,35.0033061 19,35 L21,35 C22.0621091,34.9964789 23.0813633,35.418587 23.83,36.172 C24.3735319,36.7231354 25.1809517,36.9215101 25.918,36.685 C26.4987625,36.5022715 26.9146056,35.9908277 26.975,35.385 C26.9915853,35.257336 26.9999359,35.1287368 27,35 L27,33.985 C21.526,33.831 16,32.414 16,29.5 C16.0306716,28.694409 16.4333028,27.9486178 17.09,27.481 C15.038,26.715 14,25.718 14,24.5 C14.085746,23.5019902 14.7075558,22.6296175 15.623,22.223 C13.877,21.5 13,20.6 13,19.5 C13,18.4 13.9,17.477 15.675,16.752 C13.025,16.086 11,15.067 11,13.5 C11,10.792 16.934,9.7 21.912,9.259 C22.2710221,9.22166545 22.6223008,9.38070997 22.8311148,9.67513736 C23.0399288,9.96956475 23.0738661,10.3536743 22.9199114,10.6801535 C22.7659566,11.0066327 22.4480064,11.2248059 22.088,11.251 C15.988,11.79 13.42,12.957 13.026,13.502 C13.626,14.396 18.6,15.878 27,15.989 L27,10 C27,9.44771525 27.4477153,9 28,9 C28.5522847,9 29,9.44771525 29,10 L29,15.989 C37.4,15.878 42.369,14.396 42.974,13.502 C42.554,12.927 39.639,11.654 32.928,11.171 C32.3895094,11.1166971 31.9919477,10.643833 32.0309314,10.1040171 C32.0699151,9.56420121 32.5312945,9.15336699 33.072,9.177 C37.526,9.5 45,10.485 45,13.5 C45,15.067 42.975,16.086 40.325,16.752 Z"
         id="path22" />
      <path
         d="M16,24.508 C16.034,24.684 16.8,25.526 19.948,26.224 C22.2701751,26.6940236 24.6318383,26.9418091 27.001,26.964 L27.001,23.988 C24.1931555,23.965469 21.3938429,23.6754924 18.641,23.122 C16.583,23.74 16.029,24.369 16,24.508 Z"
         id="path24" />
    </g>
  </g>
</svg>
